# xmcd CD database file
#
# Track frame offsets:
#	150
#	15107
#	29736
#	44319
#	57644
#	72871
#	88044
#	101843
#	115121
#	130029
#	142897
#	155519
#	168418
#	181932
#	197141
#	209800
#	222452
#	236017
#	248513
#	261443
#
# Disc length: 3677 seconds
#
# Revision: 0
# Processed by: cddbd v1.5.2PL0 Copyright (c) Steve Scherf et al.
# Submitted via: CDex 1.50
#
DISCID=260e5b14
DTITLE=Various Artist - The Early Blues Roots of Bob Dylan
DYEAR=2000
DGENRE=Blues
TTITLE0=Broken Hearted, Ragged and Dirty Too/Sleepy John Estes
TTITLE1=I've Got Blood In My Eyes For You/Mississippi Sheiks
TTITLE2=Broke Down Engine/Blind Willie McTell
TTITLE3=Stack O'Lee Blues/Mississippi John Hurt
TTITLE4=Will The Circle Be Unbroken?/Rev.J.C.Burnett
TTITLE5=Frankie(And Albert) - Mississippi John Hurt
TTITLE6=Sittin' On Top Of The World/ Mississippi Sheiks
TTITLE7=Step It Up And Go/Blind Boy Fuller
TTITLE8=Corrina Corrina/Bo Carter
TTITLE9=Honey Won't You Allow Me One More Chance/Henry Thomas
TTITLE10=Fixin' To Die/Bukka White
TTITLE11=See That My Grave Is Kept Clean/Blind Lemon Jefferson
TTITLE12=Railroad Bill/Will Bennett
TTITLE13=Motherless Children/Blind Willie Johnson
TTITLE14=Grasshoppers In My Pillow/Leadbelly
TTITLE15=Po' Lazarus/Booker.T.Sapps
TTITLE16=Matchbox Blues/Blind Lemon Jefferson
TTITLE17=Candyman Blues/Mississippi John Hurt
TTITLE18=Po' Boy - Bukka White
TTITLE19=Jesus Gonna Make Up My Dyin' Bed/Blind Willie Johnson
EXTD=YEAR: 2000
EXTT0=
EXTT1=
EXTT2=
EXTT3=
EXTT4=
EXTT5=
EXTT6=
EXTT7=
EXTT8=
EXTT9=
EXTT10=
EXTT11=
EXTT12=
EXTT13=
EXTT14=
EXTT15=
EXTT16=
EXTT17=
EXTT18=
EXTT19=
PLAYORDER=
